<svg width="200" height="200" xmlns="http://www.w3.org/2000/svg">
  <rect width="200" height="200" fill="white"/>
  
  <!-- QR code frame -->
  <rect x="10" y="10" width="180" height="180" fill="white" stroke="#000" stroke-width="2"/>
  
  <!-- QR code marker top-left -->
  <rect x="25" y="25" width="40" height="40" fill="black"/>
  <rect x="33" y="33" width="24" height="24" fill="white"/>
  <rect x="41" y="41" width="8" height="8" fill="black"/>
  
  <!-- QR code marker top-right -->
  <rect x="135" y="25" width="40" height="40" fill="black"/>
  <rect x="143" y="33" width="24" height="24" fill="white"/>
  <rect x="151" y="41" width="8" height="8" fill="black"/>
  
  <!-- QR code marker bottom-left -->
  <rect x="25" y="135" width="40" height="40" fill="black"/>
  <rect x="33" y="143" width="24" height="24" fill="white"/>
  <rect x="41" y="151" width="8" height="8" fill="black"/>
  
  <!-- QR code pattern (simplified representation) -->
  <rect x="85" y="25" width="5" height="5" fill="black"/>
  <rect x="95" y="25" width="5" height="5" fill="black"/>
  <rect x="105" y="25" width="5" height="5" fill="black"/>
  <rect x="85" y="35" width="5" height="5" fill="black"/>
  <rect x="95" y="45" width="5" height="5" fill="black"/>
  <rect x="115" y="35" width="5" height="5" fill="black"/>
  <rect x="85" y="55" width="5" height="5" fill="black"/>
  <rect x="95" y="55" width="5" height="5" fill="black"/>
  <rect x="105" y="55" width="5" height="5" fill="black"/>
  <rect x="85" y="65" width="5" height="5" fill="black"/>
  <rect x="95" y="65" width="5" height="5" fill="black"/>
  <rect x="105" y="65" width="5" height="5" fill="black"/>
  <rect x="115" y="65" width="5" height="5" fill="black"/>
  <rect x="95" y="75" width="5" height="5" fill="black"/>
  <rect x="105" y="75" width="5" height="5" fill="black"/>
  <rect x="115" y="75" width="5" height="5" fill="black"/>
  
  <rect x="85" y="85" width="5" height="5" fill="black"/>
  <rect x="105" y="85" width="5" height="5" fill="black"/>
  <rect x="115" y="85" width="5" height="5" fill="black"/>
  <rect x="125" y="85" width="5" height="5" fill="black"/>
  <rect x="135" y="85" width="5" height="5" fill="black"/>
  
  <rect x="85" y="95" width="5" height="5" fill="black"/>
  <rect x="95" y="95" width="5" height="5" fill="black"/>
  <rect x="105" y="95" width="5" height="5" fill="black"/>
  <rect x="115" y="95" width="5" height="5" fill="black"/>
  <rect x="125" y="95" width="5" height="5" fill="black"/>
  
  <rect x="85" y="105" width="5" height="5" fill="black"/>
  <rect x="95" y="105" width="5" height="5" fill="black"/>
  <rect x="105" y="105" width="5" height="5" fill="black"/>
  <rect x="115" y="105" width="5" height="5" fill="black"/>
  <rect x="135" y="105" width="5" height="5" fill="black"/>
  
  <rect x="85" y="115" width="5" height="5" fill="black"/>
  <rect x="95" y="115" width="5" height="5" fill="black"/>
  <rect x="115" y="115" width="5" height="5" fill="black"/>
  <rect x="125" y="115" width="5" height="5" fill="black"/>
  <rect x="135" y="115" width="5" height="5" fill="black"/>
  
  <rect x="25" y="85" width="5" height="5" fill="black"/>
  <rect x="35" y="85" width="5" height="5" fill="black"/>
  <rect x="45" y="85" width="5" height="5" fill="black"/>
  <rect x="55" y="85" width="5" height="5" fill="black"/>
  <rect x="65" y="85" width="5" height="5" fill="black"/>
  
  <rect x="25" y="95" width="5" height="5" fill="black"/>
  <rect x="35" y="95" width="5" height="5" fill="black"/>
  <rect x="45" y="95" width="5" height="5" fill="black"/>
  <rect x="55" y="95" width="5" height="5" fill="black"/>
  <rect x="65" y="95" width="5" height="5" fill="black"/>
  
  <rect x="25" y="105" width="5" height="5" fill="black"/>
  <rect x="35" y="105" width="5" height="5" fill="black"/>
  <rect x="45" y="105" width="5" height="5" fill="black"/>
  <rect x="55" y="105" width="5" height="5" fill="black"/>
  <rect x="65" y="105" width="5" height="5" fill="black"/>
  
  <rect x="55" y="115" width="5" height="5" fill="black"/>
  <rect x="65" y="115" width="5" height="5" fill="black"/>
  <rect x="75" y="115" width="5" height="5" fill="black"/>
  
  <rect x="95" y="125" width="5" height="5" fill="black"/>
  <rect x="105" y="125" width="5" height="5" fill="black"/>
  <rect x="115" y="125" width="5" height="5" fill="black"/>
  <rect x="125" y="125" width="5" height="5" fill="black"/>
  <rect x="135" y="125" width="5" height="5" fill="black"/>
  
  <rect x="95" y="135" width="5" height="5" fill="black"/>
  <rect x="105" y="135" width="5" height="5" fill="black"/>
  <rect x="115" y="135" width="5" height="5" fill="black"/>
  <rect x="125" y="135" width="5" height="5" fill="black"/>
  <rect x="135" y="145" width="5" height="5" fill="black"/>
  
  <rect x="95" y="155" width="5" height="5" fill="black"/>
  <rect x="105" y="155" width="5" height="5" fill="black"/>
  <rect x="115" y="155" width="5" height="5" fill="black"/>
  <rect x="125" y="155" width="5" height="5" fill="black"/>
  <rect x="135" y="155" width="5" height="5" fill="black"/>
  
  <rect x="145" y="135" width="5" height="5" fill="black"/>
  <rect x="155" y="135" width="5" height="5" fill="black"/>
  <rect x="165" y="135" width="5" height="5" fill="black"/>
  
  <rect x="145" y="145" width="5" height="5" fill="black"/>
  <rect x="155" y="145" width="5" height="5" fill="black"/>
  <rect x="165" y="145" width="5" height="5" fill="black"/>
  
  <rect x="145" y="155" width="5" height="5" fill="black"/>
  <rect x="155" y="155" width="5" height="5" fill="black"/>
  <rect x="165" y="155" width="5" height="5" fill="black"/>
  
  <!-- Text hint -->
  <text x="100" y="180" text-anchor="middle" font-family="Arial" font-size="8" fill="#3B82F6">Room 302 Access</text>
</svg> 